<?xml version="1.0" encoding="utf-8" standalone="no"?>
<!DOCTYPE svg PUBLIC "-//W3C//DTD SVG 1.1//EN"
  "http://www.w3.org/Graphics/SVG/1.1/DTD/svg11.dtd">
<!-- Created with matplotlib (http://matplotlib.org/) -->
<svg height="345.6pt" version="1.1" viewBox="0 0 460.8 345.6" width="460.8pt" xmlns="http://www.w3.org/2000/svg" xmlns:xlink="http://www.w3.org/1999/xlink">
 <defs>
  <style type="text/css">
*{stroke-linecap:butt;stroke-linejoin:round;}
  </style>
 </defs>
 <g id="figure_1">
  <g id="patch_1">
   <path d="M 0 345.6 
L 460.8 345.6 
L 460.8 0 
L 0 0 
z
" style="fill:#ffffff;"/>
  </g>
  <g id="axes_1">
   <g id="patch_2">
    <path d="M 57.6 307.584 
L 414.72 307.584 
L 414.72 41.472 
L 57.6 41.472 
z
" style="fill:#ffffff;"/>
   </g>
   <g id="matplotlib.axis_1">
    <g id="xtick_1">
     <g id="line2d_1">
      <defs>
       <path d="M 0 0 
L 0 3.5 
" id="m67a20b6458" style="stroke:#000000;stroke-width:0.8;"/>
      </defs>
      <g>
       <use style="stroke:#000000;stroke-width:0.8;" x="65.64776" xlink:href="#m67a20b6458" y="307.584"/>
      </g>
     </g>
     <g id="text_1">
      <!-- −6 -->
      <defs>
       <path d="M 10.59375 35.5 
L 73.1875 35.5 
L 73.1875 27.203125 
L 10.59375 27.203125 
z
" id="DejaVuSans-2212"/>
       <path d="M 33.015625 40.375 
Q 26.375 40.375 22.484375 35.828125 
Q 18.609375 31.296875 18.609375 23.390625 
Q 18.609375 15.53125 22.484375 10.953125 
Q 26.375 6.390625 33.015625 6.390625 
Q 39.65625 6.390625 43.53125 10.953125 
Q 47.40625 15.53125 47.40625 23.390625 
Q 47.40625 31.296875 43.53125 35.828125 
Q 39.65625 40.375 33.015625 40.375 
z
M 52.59375 71.296875 
L 52.59375 62.3125 
Q 48.875 64.0625 45.09375 64.984375 
Q 41.3125 65.921875 37.59375 65.921875 
Q 27.828125 65.921875 22.671875 59.328125 
Q 17.53125 52.734375 16.796875 39.40625 
Q 19.671875 43.65625 24.015625 45.921875 
Q 28.375 48.1875 33.59375 48.1875 
Q 44.578125 48.1875 50.953125 41.515625 
Q 57.328125 34.859375 57.328125 23.390625 
Q 57.328125 12.15625 50.6875 5.359375 
Q 44.046875 -1.421875 33.015625 -1.421875 
Q 20.359375 -1.421875 13.671875 8.265625 
Q 6.984375 17.96875 6.984375 36.375 
Q 6.984375 53.65625 15.1875 63.9375 
Q 23.390625 74.21875 37.203125 74.21875 
Q 40.921875 74.21875 44.703125 73.484375 
Q 48.484375 72.75 52.59375 71.296875 
z
" id="DejaVuSans-36"/>
      </defs>
      <g transform="translate(58.276666 322.182437)scale(0.1 -0.1)">
       <use xlink:href="#DejaVuSans-2212"/>
       <use x="83.789062" xlink:href="#DejaVuSans-36"/>
      </g>
     </g>
    </g>
    <g id="xtick_2">
     <g id="line2d_2">
      <g>
       <use style="stroke:#000000;stroke-width:0.8;" x="122.485173" xlink:href="#m67a20b6458" y="307.584"/>
      </g>
     </g>
     <g id="text_2">
      <!-- −4 -->
      <defs>
       <path d="M 37.796875 64.3125 
L 12.890625 25.390625 
L 37.796875 25.390625 
z
M 35.203125 72.90625 
L 47.609375 72.90625 
L 47.609375 25.390625 
L 58.015625 25.390625 
L 58.015625 17.1875 
L 47.609375 17.1875 
L 47.609375 0 
L 37.796875 0 
L 37.796875 17.1875 
L 4.890625 17.1875 
L 4.890625 26.703125 
z
" id="DejaVuSans-34"/>
      </defs>
      <g transform="translate(115.11408 322.182437)scale(0.1 -0.1)">
       <use xlink:href="#DejaVuSans-2212"/>
       <use x="83.789062" xlink:href="#DejaVuSans-34"/>
      </g>
     </g>
    </g>
    <g id="xtick_3">
     <g id="line2d_3">
      <g>
       <use style="stroke:#000000;stroke-width:0.8;" x="179.322587" xlink:href="#m67a20b6458" y="307.584"/>
      </g>
     </g>
     <g id="text_3">
      <!-- −2 -->
      <defs>
       <path d="M 19.1875 8.296875 
L 53.609375 8.296875 
L 53.609375 0 
L 7.328125 0 
L 7.328125 8.296875 
Q 12.9375 14.109375 22.625 23.890625 
Q 32.328125 33.6875 34.8125 36.53125 
Q 39.546875 41.84375 41.421875 45.53125 
Q 43.3125 49.21875 43.3125 52.78125 
Q 43.3125 58.59375 39.234375 62.25 
Q 35.15625 65.921875 28.609375 65.921875 
Q 23.96875 65.921875 18.8125 64.3125 
Q 13.671875 62.703125 7.8125 59.421875 
L 7.8125 69.390625 
Q 13.765625 71.78125 18.9375 73 
Q 24.125 74.21875 28.421875 74.21875 
Q 39.75 74.21875 46.484375 68.546875 
Q 53.21875 62.890625 53.21875 53.421875 
Q 53.21875 48.921875 51.53125 44.890625 
Q 49.859375 40.875 45.40625 35.40625 
Q 44.1875 33.984375 37.640625 27.21875 
Q 31.109375 20.453125 19.1875 8.296875 
z
" id="DejaVuSans-32"/>
      </defs>
      <g transform="translate(171.951493 322.182437)scale(0.1 -0.1)">
       <use xlink:href="#DejaVuSans-2212"/>
       <use x="83.789062" xlink:href="#DejaVuSans-32"/>
      </g>
     </g>
    </g>
    <g id="xtick_4">
     <g id="line2d_4">
      <g>
       <use style="stroke:#000000;stroke-width:0.8;" x="236.16" xlink:href="#m67a20b6458" y="307.584"/>
      </g>
     </g>
     <g id="text_4">
      <!-- 0 -->
      <defs>
       <path d="M 31.78125 66.40625 
Q 24.171875 66.40625 20.328125 58.90625 
Q 16.5 51.421875 16.5 36.375 
Q 16.5 21.390625 20.328125 13.890625 
Q 24.171875 6.390625 31.78125 6.390625 
Q 39.453125 6.390625 43.28125 13.890625 
Q 47.125 21.390625 47.125 36.375 
Q 47.125 51.421875 43.28125 58.90625 
Q 39.453125 66.40625 31.78125 66.40625 
z
M 31.78125 74.21875 
Q 44.046875 74.21875 50.515625 64.515625 
Q 56.984375 54.828125 56.984375 36.375 
Q 56.984375 17.96875 50.515625 8.265625 
Q 44.046875 -1.421875 31.78125 -1.421875 
Q 19.53125 -1.421875 13.0625 8.265625 
Q 6.59375 17.96875 6.59375 36.375 
Q 6.59375 54.828125 13.0625 64.515625 
Q 19.53125 74.21875 31.78125 74.21875 
z
" id="DejaVuSans-30"/>
      </defs>
      <g transform="translate(232.97875 322.182437)scale(0.1 -0.1)">
       <use xlink:href="#DejaVuSans-30"/>
      </g>
     </g>
    </g>
    <g id="xtick_5">
     <g id="line2d_5">
      <g>
       <use style="stroke:#000000;stroke-width:0.8;" x="292.997413" xlink:href="#m67a20b6458" y="307.584"/>
      </g>
     </g>
     <g id="text_5">
      <!-- 2 -->
      <g transform="translate(289.816163 322.182437)scale(0.1 -0.1)">
       <use xlink:href="#DejaVuSans-32"/>
      </g>
     </g>
    </g>
    <g id="xtick_6">
     <g id="line2d_6">
      <g>
       <use style="stroke:#000000;stroke-width:0.8;" x="349.834827" xlink:href="#m67a20b6458" y="307.584"/>
      </g>
     </g>
     <g id="text_6">
      <!-- 4 -->
      <g transform="translate(346.653577 322.182437)scale(0.1 -0.1)">
       <use xlink:href="#DejaVuSans-34"/>
      </g>
     </g>
    </g>
    <g id="xtick_7">
     <g id="line2d_7">
      <g>
       <use style="stroke:#000000;stroke-width:0.8;" x="406.67224" xlink:href="#m67a20b6458" y="307.584"/>
      </g>
     </g>
     <g id="text_7">
      <!-- 6 -->
      <g transform="translate(403.49099 322.182437)scale(0.1 -0.1)">
       <use xlink:href="#DejaVuSans-36"/>
      </g>
     </g>
    </g>
    <g id="text_8">
     <!-- theta -->
     <defs>
      <path d="M 18.3125 70.21875 
L 18.3125 54.6875 
L 36.8125 54.6875 
L 36.8125 47.703125 
L 18.3125 47.703125 
L 18.3125 18.015625 
Q 18.3125 11.328125 20.140625 9.421875 
Q 21.96875 7.515625 27.59375 7.515625 
L 36.8125 7.515625 
L 36.8125 0 
L 27.59375 0 
Q 17.1875 0 13.234375 3.875 
Q 9.28125 7.765625 9.28125 18.015625 
L 9.28125 47.703125 
L 2.6875 47.703125 
L 2.6875 54.6875 
L 9.28125 54.6875 
L 9.28125 70.21875 
z
" id="DejaVuSans-74"/>
      <path d="M 54.890625 33.015625 
L 54.890625 0 
L 45.90625 0 
L 45.90625 32.71875 
Q 45.90625 40.484375 42.875 44.328125 
Q 39.84375 48.1875 33.796875 48.1875 
Q 26.515625 48.1875 22.3125 43.546875 
Q 18.109375 38.921875 18.109375 30.90625 
L 18.109375 0 
L 9.078125 0 
L 9.078125 75.984375 
L 18.109375 75.984375 
L 18.109375 46.1875 
Q 21.34375 51.125 25.703125 53.5625 
Q 30.078125 56 35.796875 56 
Q 45.21875 56 50.046875 50.171875 
Q 54.890625 44.34375 54.890625 33.015625 
z
" id="DejaVuSans-68"/>
      <path d="M 56.203125 29.59375 
L 56.203125 25.203125 
L 14.890625 25.203125 
Q 15.484375 15.921875 20.484375 11.0625 
Q 25.484375 6.203125 34.421875 6.203125 
Q 39.59375 6.203125 44.453125 7.46875 
Q 49.3125 8.734375 54.109375 11.28125 
L 54.109375 2.78125 
Q 49.265625 0.734375 44.1875 -0.34375 
Q 39.109375 -1.421875 33.890625 -1.421875 
Q 20.796875 -1.421875 13.15625 6.1875 
Q 5.515625 13.8125 5.515625 26.8125 
Q 5.515625 40.234375 12.765625 48.109375 
Q 20.015625 56 32.328125 56 
Q 43.359375 56 49.78125 48.890625 
Q 56.203125 41.796875 56.203125 29.59375 
z
M 47.21875 32.234375 
Q 47.125 39.59375 43.09375 43.984375 
Q 39.0625 48.390625 32.421875 48.390625 
Q 24.90625 48.390625 20.390625 44.140625 
Q 15.875 39.890625 15.1875 32.171875 
z
" id="DejaVuSans-65"/>
      <path d="M 34.28125 27.484375 
Q 23.390625 27.484375 19.1875 25 
Q 14.984375 22.515625 14.984375 16.5 
Q 14.984375 11.71875 18.140625 8.90625 
Q 21.296875 6.109375 26.703125 6.109375 
Q 34.1875 6.109375 38.703125 11.40625 
Q 43.21875 16.703125 43.21875 25.484375 
L 43.21875 27.484375 
z
M 52.203125 31.203125 
L 52.203125 0 
L 43.21875 0 
L 43.21875 8.296875 
Q 40.140625 3.328125 35.546875 0.953125 
Q 30.953125 -1.421875 24.3125 -1.421875 
Q 15.921875 -1.421875 10.953125 3.296875 
Q 6 8.015625 6 15.921875 
Q 6 25.140625 12.171875 29.828125 
Q 18.359375 34.515625 30.609375 34.515625 
L 43.21875 34.515625 
L 43.21875 35.40625 
Q 43.21875 41.609375 39.140625 45 
Q 35.0625 48.390625 27.6875 48.390625 
Q 23 48.390625 18.546875 47.265625 
Q 14.109375 46.140625 10.015625 43.890625 
L 10.015625 52.203125 
Q 14.9375 54.109375 19.578125 55.046875 
Q 24.21875 56 28.609375 56 
Q 40.484375 56 46.34375 49.84375 
Q 52.203125 43.703125 52.203125 31.203125 
z
" id="DejaVuSans-61"/>
     </defs>
     <g transform="translate(222.930312 335.860562)scale(0.1 -0.1)">
      <use xlink:href="#DejaVuSans-74"/>
      <use x="39.208984" xlink:href="#DejaVuSans-68"/>
      <use x="102.587891" xlink:href="#DejaVuSans-65"/>
      <use x="164.111328" xlink:href="#DejaVuSans-74"/>
      <use x="203.320312" xlink:href="#DejaVuSans-61"/>
     </g>
    </g>
   </g>
   <g id="matplotlib.axis_2">
    <g id="ytick_1">
     <g id="line2d_8">
      <defs>
       <path d="M 0 0 
L -3.5 0 
" id="me187b0da9a" style="stroke:#000000;stroke-width:0.8;"/>
      </defs>
      <g>
       <use style="stroke:#000000;stroke-width:0.8;" x="57.6" xlink:href="#me187b0da9a" y="276.252771"/>
      </g>
     </g>
     <g id="text_9">
      <!-- −7.5 -->
      <defs>
       <path d="M 8.203125 72.90625 
L 55.078125 72.90625 
L 55.078125 68.703125 
L 28.609375 0 
L 18.3125 0 
L 43.21875 64.59375 
L 8.203125 64.59375 
z
" id="DejaVuSans-37"/>
       <path d="M 10.6875 12.40625 
L 21 12.40625 
L 21 0 
L 10.6875 0 
z
" id="DejaVuSans-2e"/>
       <path d="M 10.796875 72.90625 
L 49.515625 72.90625 
L 49.515625 64.59375 
L 19.828125 64.59375 
L 19.828125 46.734375 
Q 21.96875 47.46875 24.109375 47.828125 
Q 26.265625 48.1875 28.421875 48.1875 
Q 40.625 48.1875 47.75 41.5 
Q 54.890625 34.8125 54.890625 23.390625 
Q 54.890625 11.625 47.5625 5.09375 
Q 40.234375 -1.421875 26.90625 -1.421875 
Q 22.3125 -1.421875 17.546875 -0.640625 
Q 12.796875 0.140625 7.71875 1.703125 
L 7.71875 11.625 
Q 12.109375 9.234375 16.796875 8.0625 
Q 21.484375 6.890625 26.703125 6.890625 
Q 35.15625 6.890625 40.078125 11.328125 
Q 45.015625 15.765625 45.015625 23.390625 
Q 45.015625 31 40.078125 35.4375 
Q 35.15625 39.890625 26.703125 39.890625 
Q 22.75 39.890625 18.8125 39.015625 
Q 14.890625 38.140625 10.796875 36.28125 
z
" id="DejaVuSans-35"/>
      </defs>
      <g transform="translate(26.317187 280.051989)scale(0.1 -0.1)">
       <use xlink:href="#DejaVuSans-2212"/>
       <use x="83.789062" xlink:href="#DejaVuSans-37"/>
       <use x="147.412109" xlink:href="#DejaVuSans-2e"/>
       <use x="179.199219" xlink:href="#DejaVuSans-35"/>
      </g>
     </g>
    </g>
    <g id="ytick_2">
     <g id="line2d_9">
      <g>
       <use style="stroke:#000000;stroke-width:0.8;" x="57.6" xlink:href="#me187b0da9a" y="242.344514"/>
      </g>
     </g>
     <g id="text_10">
      <!-- −5.0 -->
      <g transform="translate(26.317187 246.143733)scale(0.1 -0.1)">
       <use xlink:href="#DejaVuSans-2212"/>
       <use x="83.789062" xlink:href="#DejaVuSans-35"/>
       <use x="147.412109" xlink:href="#DejaVuSans-2e"/>
       <use x="179.199219" xlink:href="#DejaVuSans-30"/>
      </g>
     </g>
    </g>
    <g id="ytick_3">
     <g id="line2d_10">
      <g>
       <use style="stroke:#000000;stroke-width:0.8;" x="57.6" xlink:href="#me187b0da9a" y="208.436257"/>
      </g>
     </g>
     <g id="text_11">
      <!-- −2.5 -->
      <g transform="translate(26.317187 212.235476)scale(0.1 -0.1)">
       <use xlink:href="#DejaVuSans-2212"/>
       <use x="83.789062" xlink:href="#DejaVuSans-32"/>
       <use x="147.412109" xlink:href="#DejaVuSans-2e"/>
       <use x="179.199219" xlink:href="#DejaVuSans-35"/>
      </g>
     </g>
    </g>
    <g id="ytick_4">
     <g id="line2d_11">
      <g>
       <use style="stroke:#000000;stroke-width:0.8;" x="57.6" xlink:href="#me187b0da9a" y="174.528"/>
      </g>
     </g>
     <g id="text_12">
      <!-- 0.0 -->
      <g transform="translate(34.696875 178.327219)scale(0.1 -0.1)">
       <use xlink:href="#DejaVuSans-30"/>
       <use x="63.623047" xlink:href="#DejaVuSans-2e"/>
       <use x="95.410156" xlink:href="#DejaVuSans-30"/>
      </g>
     </g>
    </g>
    <g id="ytick_5">
     <g id="line2d_12">
      <g>
       <use style="stroke:#000000;stroke-width:0.8;" x="57.6" xlink:href="#me187b0da9a" y="140.619743"/>
      </g>
     </g>
     <g id="text_13">
      <!-- 2.5 -->
      <g transform="translate(34.696875 144.418962)scale(0.1 -0.1)">
       <use xlink:href="#DejaVuSans-32"/>
       <use x="63.623047" xlink:href="#DejaVuSans-2e"/>
       <use x="95.410156" xlink:href="#DejaVuSans-35"/>
      </g>
     </g>
    </g>
    <g id="ytick_6">
     <g id="line2d_13">
      <g>
       <use style="stroke:#000000;stroke-width:0.8;" x="57.6" xlink:href="#me187b0da9a" y="106.711486"/>
      </g>
     </g>
     <g id="text_14">
      <!-- 5.0 -->
      <g transform="translate(34.696875 110.510705)scale(0.1 -0.1)">
       <use xlink:href="#DejaVuSans-35"/>
       <use x="63.623047" xlink:href="#DejaVuSans-2e"/>
       <use x="95.410156" xlink:href="#DejaVuSans-30"/>
      </g>
     </g>
    </g>
    <g id="ytick_7">
     <g id="line2d_14">
      <g>
       <use style="stroke:#000000;stroke-width:0.8;" x="57.6" xlink:href="#me187b0da9a" y="72.803229"/>
      </g>
     </g>
     <g id="text_15">
      <!-- 7.5 -->
      <g transform="translate(34.696875 76.602448)scale(0.1 -0.1)">
       <use xlink:href="#DejaVuSans-37"/>
       <use x="63.623047" xlink:href="#DejaVuSans-2e"/>
       <use x="95.410156" xlink:href="#DejaVuSans-35"/>
      </g>
     </g>
    </g>
    <g id="text_16">
     <!-- thetadot -->
     <defs>
      <path d="M 45.40625 46.390625 
L 45.40625 75.984375 
L 54.390625 75.984375 
L 54.390625 0 
L 45.40625 0 
L 45.40625 8.203125 
Q 42.578125 3.328125 38.25 0.953125 
Q 33.9375 -1.421875 27.875 -1.421875 
Q 17.96875 -1.421875 11.734375 6.484375 
Q 5.515625 14.40625 5.515625 27.296875 
Q 5.515625 40.1875 11.734375 48.09375 
Q 17.96875 56 27.875 56 
Q 33.9375 56 38.25 53.625 
Q 42.578125 51.265625 45.40625 46.390625 
z
M 14.796875 27.296875 
Q 14.796875 17.390625 18.875 11.75 
Q 22.953125 6.109375 30.078125 6.109375 
Q 37.203125 6.109375 41.296875 11.75 
Q 45.40625 17.390625 45.40625 27.296875 
Q 45.40625 37.203125 41.296875 42.84375 
Q 37.203125 48.484375 30.078125 48.484375 
Q 22.953125 48.484375 18.875 42.84375 
Q 14.796875 37.203125 14.796875 27.296875 
z
" id="DejaVuSans-64"/>
      <path d="M 30.609375 48.390625 
Q 23.390625 48.390625 19.1875 42.75 
Q 14.984375 37.109375 14.984375 27.296875 
Q 14.984375 17.484375 19.15625 11.84375 
Q 23.34375 6.203125 30.609375 6.203125 
Q 37.796875 6.203125 41.984375 11.859375 
Q 46.1875 17.53125 46.1875 27.296875 
Q 46.1875 37.015625 41.984375 42.703125 
Q 37.796875 48.390625 30.609375 48.390625 
z
M 30.609375 56 
Q 42.328125 56 49.015625 48.375 
Q 55.71875 40.765625 55.71875 27.296875 
Q 55.71875 13.875 49.015625 6.21875 
Q 42.328125 -1.421875 30.609375 -1.421875 
Q 18.84375 -1.421875 12.171875 6.21875 
Q 5.515625 13.875 5.515625 27.296875 
Q 5.515625 40.765625 12.171875 48.375 
Q 18.84375 56 30.609375 56 
z
" id="DejaVuSans-6f"/>
     </defs>
     <g transform="translate(20.2375 195.951437)rotate(-90)scale(0.1 -0.1)">
      <use xlink:href="#DejaVuSans-74"/>
      <use x="39.208984" xlink:href="#DejaVuSans-68"/>
      <use x="102.587891" xlink:href="#DejaVuSans-65"/>
      <use x="164.111328" xlink:href="#DejaVuSans-74"/>
      <use x="203.320312" xlink:href="#DejaVuSans-61"/>
      <use x="264.599609" xlink:href="#DejaVuSans-64"/>
      <use x="328.076172" xlink:href="#DejaVuSans-6f"/>
      <use x="389.257812" xlink:href="#DejaVuSans-74"/>
     </g>
    </g>
   </g>
   <g id="LineCollection_1">
    <path clip-path="url(#p4db4c18534)" d="M 414.72 242.165338 
L 412.368441 241.94304 
L 412.3392 241.940204 
L 409.9584 241.34038 
L 407.5776 240.376261 
L 407.204396 240.16896 
L 405.1968 239.024086 
L 404.32422 238.39488 
L 402.816 237.277512 
L 402.079114 236.6208 
L 400.4352 235.114418 
L 400.183891 234.84672 
L 398.565675 233.07264 
L 398.0544 232.495295 
L 397.119498 231.29856 
L 395.775161 229.52448 
L 395.6736 229.38614 
L 394.593294 227.7504 
L 393.459121 225.97632 
L 393.2928 225.707193 
L 392.44273 224.20224 
L 391.475077 222.42816 
L 390.912 221.357634 
L 390.569245 220.65408 
L 389.737038 218.88 
L 388.93682 217.10592 
L 388.5312 216.169094 
L 388.191585 215.33184 
L 387.502086 213.55776 
L 386.842655 211.78368 
L 386.213309 210.0096 
L 386.1504 209.823324 
L 385.642961 208.23552 
L 385.10453 206.46144 
L 384.594643 204.68736 
L 384.113312 202.91328 
L 383.7696 201.566445 
L 383.665485 201.1392 
L 383.260514 199.36512 
L 382.882866 197.59104 
L 382.532553 195.81696 
L 382.209582 194.04288 
L 381.913966 192.2688 
L 381.645714 190.49472 
L 381.404837 188.72064 
L 381.3888 188.58736 
L 381.19872 186.94656 
L 381.019583 185.17248 
L 380.866835 183.3984 
L 380.740485 181.62432 
L 380.64054 179.85024 
L 380.567008 178.07616 
L 380.519896 176.30208 
L 380.499213 174.528 
L 380.504966 172.75392 
L 380.537163 170.97984 
L 380.595812 169.20576 
L 380.68092 167.43168 
L 380.792496 165.6576 
L 380.930546 163.88352 
L 381.09508 162.10944 
L 381.286105 160.33536 
L 381.3888 159.497751 
L 381.508134 158.56128 
L 381.761749 156.7872 
L 382.042934 155.01312 
L 382.351698 153.23904 
L 382.688053 151.46496 
L 383.052008 149.69088 
L 383.443574 147.9168 
L 383.7696 146.536957 
L 383.867263 146.14272 
L 384.335691 144.36864 
L 384.833125 142.59456 
L 385.359579 140.82048 
L 385.915066 139.0464 
L 386.1504 138.332086 
L 386.519953 137.27232 
L 387.169345 135.49824 
L 387.849548 133.72416 
L 388.5312 132.023373 
L 388.56262 131.95008 
L 389.356045 130.176 
L 390.182535 128.40192 
L 390.912 126.896329 
L 391.052821 126.62784 
L 392.019023 124.85376 
L 393.021167 123.07968 
L 393.2928 122.615385 
L 394.134039 121.3056 
L 395.313014 119.53152 
L 395.6736 119.006467 
L 396.631267 117.75744 
L 398.035835 115.98336 
L 398.0544 115.960623 
L 399.684747 114.20928 
L 400.4352 113.427107 
L 401.550161 112.4352 
L 402.816 111.341623 
L 403.774112 110.66112 
L 405.1968 109.679065 
L 406.672758 108.88704 
L 407.5776 108.414775 
L 409.9584 107.535456 
L 411.927357 107.11296 
L 412.3392 107.026942 
L 414.72 106.890662 
" style="fill:none;stroke:#440154;stroke-width:1.5;"/>
    <path clip-path="url(#p4db4c18534)" d="M 57.6 106.890662 
L 59.951559 107.11296 
L 59.9808 107.115796 
L 62.3616 107.71562 
L 64.7424 108.679739 
L 65.115604 108.88704 
L 67.1232 110.031914 
L 67.99578 110.66112 
L 69.504 111.778488 
L 70.240886 112.4352 
L 71.8848 113.941582 
L 72.136109 114.20928 
L 73.754325 115.98336 
L 74.2656 116.560705 
L 75.200502 117.75744 
L 76.544839 119.53152 
L 76.6464 119.66986 
L 77.726706 121.3056 
L 78.860879 123.07968 
L 79.0272 123.348807 
L 79.87727 124.85376 
L 80.844923 126.62784 
L 81.408 127.698366 
L 81.750755 128.40192 
L 82.582962 130.176 
L 83.38318 131.95008 
L 83.7888 132.886906 
L 84.128415 133.72416 
L 84.817914 135.49824 
L 85.477345 137.27232 
L 86.106691 139.0464 
L 86.1696 139.232676 
L 86.677039 140.82048 
L 87.21547 142.59456 
L 87.725357 144.36864 
L 88.206688 146.14272 
L 88.5504 147.489555 
L 88.654515 147.9168 
L 89.059486 149.69088 
L 89.437134 151.46496 
L 89.787447 153.23904 
L 90.110418 155.01312 
L 90.406034 156.7872 
L 90.674286 158.56128 
L 90.915163 160.33536 
L 90.9312 160.46864 
L 91.12128 162.10944 
L 91.300417 163.88352 
L 91.453165 165.6576 
L 91.579515 167.43168 
L 91.67946 169.20576 
L 91.752992 170.97984 
L 91.800104 172.75392 
L 91.820787 174.528 
L 91.815034 176.30208 
L 91.782837 178.07616 
L 91.724188 179.85024 
L 91.63908 181.62432 
L 91.527504 183.3984 
L 91.389454 185.17248 
L 91.22492 186.94656 
L 91.033895 188.72064 
L 90.9312 189.558249 
L 90.811866 190.49472 
L 90.558251 192.2688 
L 90.277066 194.04288 
L 89.968302 195.81696 
L 89.631947 197.59104 
L 89.267992 199.36512 
L 88.876426 201.1392 
L 88.5504 202.519043 
L 88.452737 202.91328 
L 87.984309 204.68736 
L 87.486875 206.46144 
L 86.960421 208.23552 
L 86.404934 210.0096 
L 86.1696 210.723914 
L 85.800047 211.78368 
L 85.150655 213.55776 
L 84.470452 215.33184 
L 83.7888 217.032627 
L 83.75738 217.10592 
L 82.963955 218.88 
L 82.137465 220.65408 
L 81.408 222.159671 
L 81.267179 222.42816 
L 80.300977 224.20224 
L 79.298833 225.97632 
L 79.0272 226.440615 
L 78.185961 227.7504 
L 77.006986 229.52448 
L 76.6464 230.049533 
L 75.688733 231.29856 
L 74.284165 233.07264 
L 74.2656 233.095377 
L 72.635253 234.84672 
L 71.8848 235.628893 
L 70.769839 236.6208 
L 69.504 237.714377 
L 68.545888 238.39488 
L 67.1232 239.376935 
L 65.647242 240.16896 
L 64.7424 240.641225 
L 62.3616 241.520544 
L 60.392643 241.94304 
L 59.9808 242.029058 
L 57.6 242.165338 
" style="fill:none;stroke:#440154;stroke-width:1.5;"/>
    <path clip-path="url(#p4db4c18534)" d="M 236.16 242.165338 
L 233.7792 241.940204 
L 231.3984 241.34038 
L 228.644396 240.16896 
L 226.6368 239.024086 
L 224.256 237.277512 
L 221.623891 234.84672 
L 219.4944 232.495295 
L 217.1136 229.38614 
L 214.7328 225.707193 
L 212.352 221.357634 
L 210.37682 217.10592 
L 208.942086 213.55776 
L 207.5904 209.823324 
L 206.034643 204.68736 
L 204.700514 199.36512 
L 203.649582 194.04288 
L 202.8288 188.58736 
L 202.306835 183.3984 
L 202.007008 178.07616 
L 201.944966 172.75392 
L 202.12092 167.43168 
L 202.53508 162.10944 
L 203.201749 156.7872 
L 204.128053 151.46496 
L 205.307263 146.14272 
L 206.799579 140.82048 
L 207.959953 137.27232 
L 210.00262 131.95008 
L 212.492821 126.62784 
L 214.7328 122.615385 
L 217.1136 119.006467 
L 219.4944 115.960623 
L 221.8752 113.427107 
L 224.256 111.341623 
L 226.6368 109.679065 
L 229.0176 108.414775 
L 231.3984 107.535456 
L 233.7792 107.026942 
L 236.16 106.890662 
L 238.5408 107.115796 
L 240.9216 107.71562 
L 243.675604 108.88704 
L 245.6832 110.031914 
L 248.064 111.778488 
L 250.696109 114.20928 
L 252.8256 116.560705 
L 255.2064 119.66986 
L 257.5872 123.348807 
L 259.968 127.698366 
L 261.94318 131.95008 
L 263.377914 135.49824 
L 264.7296 139.232676 
L 266.285357 144.36864 
L 267.619486 149.69088 
L 268.670418 155.01312 
L 269.4912 160.46864 
L 270.013165 165.6576 
L 270.312992 170.97984 
L 270.375034 176.30208 
L 270.19908 181.62432 
L 269.78492 186.94656 
L 269.118251 192.2688 
L 268.191947 197.59104 
L 267.012737 202.91328 
L 265.520421 208.23552 
L 264.360047 211.78368 
L 262.31738 217.10592 
L 259.827179 222.42816 
L 257.5872 226.440615 
L 255.2064 230.049533 
L 252.8256 233.095377 
L 250.4448 235.628893 
L 248.064 237.714377 
L 245.6832 239.376935 
L 243.3024 240.641225 
L 240.9216 241.520544 
L 238.5408 242.029058 
L 236.16 242.165338 
L 236.16 242.165338 
" style="fill:none;stroke:#440154;stroke-width:1.5;"/>
   </g>
   <g id="LineCollection_2">
    <path clip-path="url(#p4db4c18534)" d="M 414.72 270.184024 
L 412.3392 270.008773 
L 409.9584 269.57498 
L 406.738368 268.55424 
L 405.1968 267.934059 
L 402.816 266.725776 
L 400.097724 265.00608 
L 397.723754 263.232 
L 395.633888 261.45792 
L 392.086134 257.90976 
L 390.495903 256.13568 
L 387.64155 252.58752 
L 385.088646 249.03936 
L 382.774322 245.4912 
L 380.65481 241.94304 
L 377.784131 236.6208 
L 375.221585 231.29856 
L 372.928572 225.97632 
L 370.879384 220.65408 
L 369.059081 215.33184 
L 367.460206 210.0096 
L 366.075333 204.68736 
L 364.909904 199.36512 
L 363.956026 194.04288 
L 363.224163 188.72064 
L 362.716666 183.3984 
L 362.433415 178.07616 
L 362.374286 172.75392 
L 362.539157 167.43168 
L 362.927907 162.10944 
L 363.540413 156.7872 
L 364.376554 151.46496 
L 365.427354 146.14272 
L 366.694598 140.82048 
L 368.177009 135.49824 
L 369.877778 130.176 
L 371.8656 124.68881 
L 374.2464 118.882884 
L 376.6272 113.710614 
L 379.098914 108.88704 
L 382.171782 103.5648 
L 384.452816 100.01664 
L 386.975626 96.46848 
L 389.807165 92.92032 
L 391.362434 91.14624 
L 393.2928 89.117634 
L 395.6736 86.897378 
L 398.0544 84.95692 
L 400.4352 83.291622 
L 402.816 81.895638 
L 405.918944 80.50176 
L 407.5776 79.904309 
L 409.9584 79.301443 
L 412.3392 78.956754 
L 414.72 78.871976 
L 414.72 78.871976 
" style="fill:none;stroke:#443983;stroke-width:1.5;"/>
    <path clip-path="url(#p4db4c18534)" d="M 57.6 78.871976 
L 59.9808 79.047227 
L 62.3616 79.48102 
L 65.581632 80.50176 
L 67.1232 81.121941 
L 69.504 82.330224 
L 72.222276 84.04992 
L 74.596246 85.824 
L 76.686112 87.59808 
L 80.233866 91.14624 
L 81.824097 92.92032 
L 84.67845 96.46848 
L 87.231354 100.01664 
L 89.545678 103.5648 
L 91.66519 107.11296 
L 94.535869 112.4352 
L 97.098415 117.75744 
L 99.391428 123.07968 
L 101.440616 128.40192 
L 103.260919 133.72416 
L 104.859794 139.0464 
L 106.244667 144.36864 
L 107.410096 149.69088 
L 108.363974 155.01312 
L 109.095837 160.33536 
L 109.603334 165.6576 
L 109.886585 170.97984 
L 109.945714 176.30208 
L 109.780843 181.62432 
L 109.392093 186.94656 
L 108.779587 192.2688 
L 107.943446 197.59104 
L 106.892646 202.91328 
L 105.625402 208.23552 
L 104.142991 213.55776 
L 102.442222 218.88 
L 100.4544 224.36719 
L 98.0736 230.173116 
L 95.6928 235.345386 
L 93.221086 240.16896 
L 90.148218 245.4912 
L 87.867184 249.03936 
L 85.344374 252.58752 
L 82.512835 256.13568 
L 80.957566 257.90976 
L 79.0272 259.938366 
L 76.6464 262.158622 
L 74.2656 264.09908 
L 71.8848 265.764378 
L 69.504 267.160362 
L 66.401056 268.55424 
L 64.7424 269.151691 
L 62.3616 269.754557 
L 59.9808 270.099246 
L 57.6 270.184024 
L 57.6 270.184024 
" style="fill:none;stroke:#443983;stroke-width:1.5;"/>
    <path clip-path="url(#p4db4c18534)" d="M 229.0176 268.885719 
L 226.6368 267.934059 
L 224.256 266.725776 
L 221.537724 265.00608 
L 219.163754 263.232 
L 217.073888 261.45792 
L 213.526134 257.90976 
L 211.935903 256.13568 
L 209.08155 252.58752 
L 206.528646 249.03936 
L 204.214322 245.4912 
L 202.09481 241.94304 
L 199.224131 236.6208 
L 196.661585 231.29856 
L 194.368572 225.97632 
L 192.319384 220.65408 
L 190.499081 215.33184 
L 188.900206 210.0096 
L 187.515333 204.68736 
L 186.349904 199.36512 
L 185.396026 194.04288 
L 184.664163 188.72064 
L 184.156666 183.3984 
L 183.873415 178.07616 
L 183.814286 172.75392 
L 183.979157 167.43168 
L 184.367907 162.10944 
L 184.980413 156.7872 
L 185.816554 151.46496 
L 186.867354 146.14272 
L 188.134598 140.82048 
L 189.617009 135.49824 
L 191.317778 130.176 
L 193.3056 124.68881 
L 195.6864 118.882884 
L 198.0672 113.710614 
L 200.538914 108.88704 
L 203.611782 103.5648 
L 205.892816 100.01664 
L 208.415626 96.46848 
L 211.247165 92.92032 
L 212.802434 91.14624 
L 214.7328 89.117634 
L 217.1136 86.897378 
L 219.4944 84.95692 
L 221.8752 83.291622 
L 224.256 81.895638 
L 227.358944 80.50176 
L 229.0176 79.904309 
L 231.3984 79.301443 
L 233.7792 78.956754 
L 236.16 78.871976 
L 238.5408 79.047227 
L 240.9216 79.48102 
L 244.141632 80.50176 
L 245.6832 81.121941 
L 248.064 82.330224 
L 250.782276 84.04992 
L 253.156246 85.824 
L 255.246112 87.59808 
L 258.793866 91.14624 
L 260.384097 92.92032 
L 263.23845 96.46848 
L 265.791354 100.01664 
L 268.105678 103.5648 
L 270.22519 107.11296 
L 273.095869 112.4352 
L 275.658415 117.75744 
L 277.951428 123.07968 
L 280.000616 128.40192 
L 281.820919 133.72416 
L 283.419794 139.0464 
L 284.804667 144.36864 
L 285.970096 149.69088 
L 286.923974 155.01312 
L 287.655837 160.33536 
L 288.163334 165.6576 
L 288.446585 170.97984 
L 288.505714 176.30208 
L 288.340843 181.62432 
L 287.952093 186.94656 
L 287.339587 192.2688 
L 286.503446 197.59104 
L 285.452646 202.91328 
L 284.185402 208.23552 
L 282.702991 213.55776 
L 281.002222 218.88 
L 279.0144 224.36719 
L 276.6336 230.173116 
L 274.2528 235.345386 
L 271.781086 240.16896 
L 268.708218 245.4912 
L 266.427184 249.03936 
L 263.904374 252.58752 
L 261.072835 256.13568 
L 259.517566 257.90976 
L 257.5872 259.938366 
L 255.2064 262.158622 
L 252.8256 264.09908 
L 250.4448 265.764378 
L 248.064 267.160362 
L 244.961056 268.55424 
L 243.3024 269.151691 
L 240.9216 269.754557 
L 238.5408 270.099246 
L 236.16 270.184024 
L 233.7792 270.008773 
L 231.3984 269.57498 
L 229.0176 268.885719 
L 229.0176 268.885719 
" style="fill:none;stroke:#443983;stroke-width:1.5;"/>
   </g>
   <g id="LineCollection_3">
    <path clip-path="url(#p4db4c18534)" d="M 414.72 291.683252 
L 412.3392 291.53279 
L 409.9584 291.170149 
L 407.5776 290.598851 
L 405.1968 289.822378 
L 402.816 288.83132 
L 400.4352 287.637091 
L 398.0544 286.23817 
L 395.525177 284.52096 
L 393.200684 282.74688 
L 389.167854 279.19872 
L 387.359284 277.42464 
L 384.028003 273.87648 
L 381.3888 270.789017 
L 378.234589 266.78016 
L 374.2464 261.249613 
L 370.860385 256.13568 
L 367.104 250.018733 
L 364.486185 245.4912 
L 360.628734 238.39488 
L 356.16742 229.52448 
L 352.074494 220.65408 
L 349.063182 213.55776 
L 346.323647 206.46144 
L 343.901292 199.36512 
L 341.880528 192.2688 
L 340.742541 186.94656 
L 340.136788 183.3984 
L 339.728792 179.85024 
L 339.518008 176.30208 
L 339.503895 172.75392 
L 339.685913 169.20576 
L 340.063523 165.6576 
L 340.63619 162.10944 
L 342.180061 155.01312 
L 343.706368 149.69088 
L 345.452775 144.36864 
L 349.460177 133.72416 
L 353.267471 124.85376 
L 356.563621 117.75744 
L 361.024414 108.88704 
L 364.892784 101.79072 
L 367.994728 96.46848 
L 371.8656 90.293461 
L 374.889203 85.824 
L 378.801881 80.50176 
L 381.661275 76.9536 
L 384.792701 73.40544 
L 388.265645 69.85728 
L 390.200097 68.0832 
L 392.294121 66.30912 
L 394.603037 64.53504 
L 397.214815 62.76096 
L 398.0544 62.225858 
L 400.4352 60.899465 
L 402.816 59.787374 
L 405.1968 58.882237 
L 407.5776 58.189982 
L 409.9584 57.705879 
L 412.3392 57.432752 
L 414.72 57.372748 
L 414.72 57.372748 
" style="fill:none;stroke:#31688e;stroke-width:1.5;"/>
    <path clip-path="url(#p4db4c18534)" d="M 57.6 57.372748 
L 59.9808 57.52321 
L 62.3616 57.885851 
L 64.7424 58.457149 
L 67.1232 59.233622 
L 69.504 60.22468 
L 71.8848 61.418909 
L 74.2656 62.81783 
L 76.794823 64.53504 
L 79.119316 66.30912 
L 83.152146 69.85728 
L 84.960716 71.63136 
L 88.291997 75.17952 
L 90.9312 78.266983 
L 94.085411 82.27584 
L 98.0736 87.806387 
L 101.459615 92.92032 
L 105.216 99.037267 
L 107.833815 103.5648 
L 111.691266 110.66112 
L 116.15258 119.53152 
L 120.245506 128.40192 
L 123.256818 135.49824 
L 125.996353 142.59456 
L 128.418708 149.69088 
L 130.439472 156.7872 
L 131.577459 162.10944 
L 132.183212 165.6576 
L 132.591208 169.20576 
L 132.801992 172.75392 
L 132.816105 176.30208 
L 132.634087 179.85024 
L 132.256477 183.3984 
L 131.68381 186.94656 
L 130.139939 194.04288 
L 128.613632 199.36512 
L 126.867225 204.68736 
L 122.859823 215.33184 
L 119.052529 224.20224 
L 115.756379 231.29856 
L 111.295586 240.16896 
L 107.427216 247.26528 
L 104.325272 252.58752 
L 100.4544 258.762539 
L 97.430797 263.232 
L 93.518119 268.55424 
L 90.658725 272.1024 
L 87.527299 275.65056 
L 84.054355 279.19872 
L 82.119903 280.9728 
L 80.025879 282.74688 
L 77.716963 284.52096 
L 75.105185 286.29504 
L 74.2656 286.830142 
L 71.8848 288.156535 
L 69.504 289.268626 
L 67.1232 290.173763 
L 64.7424 290.866018 
L 62.3616 291.350121 
L 59.9808 291.623248 
L 57.6 291.683252 
L 57.6 291.683252 
" style="fill:none;stroke:#31688e;stroke-width:1.5;"/>
    <path clip-path="url(#p4db4c18534)" d="M 236.16 291.683252 
L 233.7792 291.53279 
L 231.3984 291.170149 
L 229.0176 290.598851 
L 226.6368 289.822378 
L 224.256 288.83132 
L 221.8752 287.637091 
L 219.4944 286.23817 
L 216.965177 284.52096 
L 214.640684 282.74688 
L 210.607854 279.19872 
L 208.799284 277.42464 
L 205.468003 273.87648 
L 202.8288 270.789017 
L 199.674589 266.78016 
L 195.6864 261.249613 
L 192.300385 256.13568 
L 188.544 250.018733 
L 185.926185 245.4912 
L 182.068734 238.39488 
L 177.60742 229.52448 
L 173.514494 220.65408 
L 170.503182 213.55776 
L 167.763647 206.46144 
L 165.341292 199.36512 
L 163.320528 192.2688 
L 162.182541 186.94656 
L 161.576788 183.3984 
L 161.168792 179.85024 
L 160.958008 176.30208 
L 160.943895 172.75392 
L 161.125913 169.20576 
L 161.503523 165.6576 
L 162.07619 162.10944 
L 163.620061 155.01312 
L 165.146368 149.69088 
L 166.892775 144.36864 
L 170.900177 133.72416 
L 174.707471 124.85376 
L 178.003621 117.75744 
L 182.464414 108.88704 
L 186.332784 101.79072 
L 189.434728 96.46848 
L 193.3056 90.293461 
L 196.329203 85.824 
L 200.241881 80.50176 
L 203.101275 76.9536 
L 206.232701 73.40544 
L 209.705645 69.85728 
L 211.640097 68.0832 
L 213.734121 66.30912 
L 216.043037 64.53504 
L 218.654815 62.76096 
L 219.4944 62.225858 
L 221.8752 60.899465 
L 224.256 59.787374 
L 226.6368 58.882237 
L 229.0176 58.189982 
L 231.3984 57.705879 
L 233.7792 57.432752 
L 237.212558 57.43872 
L 238.5408 57.52321 
L 240.9216 57.885851 
L 243.3024 58.457149 
L 245.6832 59.233622 
L 248.064 60.22468 
L 250.4448 61.418909 
L 252.8256 62.81783 
L 255.354823 64.53504 
L 257.679316 66.30912 
L 261.712146 69.85728 
L 263.520716 71.63136 
L 266.851997 75.17952 
L 269.4912 78.266983 
L 272.645411 82.27584 
L 276.6336 87.806387 
L 280.019615 92.92032 
L 283.776 99.037267 
L 286.393815 103.5648 
L 290.251266 110.66112 
L 294.71258 119.53152 
L 298.805506 128.40192 
L 301.816818 135.49824 
L 304.556353 142.59456 
L 306.978708 149.69088 
L 308.999472 156.7872 
L 310.137459 162.10944 
L 310.743212 165.6576 
L 311.151208 169.20576 
L 311.361992 172.75392 
L 311.376105 176.30208 
L 311.194087 179.85024 
L 310.816477 183.3984 
L 310.24381 186.94656 
L 308.699939 194.04288 
L 307.173632 199.36512 
L 305.427225 204.68736 
L 301.419823 215.33184 
L 297.612529 224.20224 
L 294.316379 231.29856 
L 289.855586 240.16896 
L 285.987216 247.26528 
L 282.885272 252.58752 
L 279.0144 258.762539 
L 275.990797 263.232 
L 272.078119 268.55424 
L 269.218725 272.1024 
L 266.087299 275.65056 
L 262.614355 279.19872 
L 260.679903 280.9728 
L 258.585879 282.74688 
L 256.276963 284.52096 
L 253.665185 286.29504 
L 252.8256 286.830142 
L 250.4448 288.156535 
L 248.064 289.268626 
L 245.6832 290.173763 
L 243.3024 290.866018 
L 240.9216 291.350121 
L 238.5408 291.623248 
L 236.16 291.683252 
L 236.16 291.683252 
" style="fill:none;stroke:#31688e;stroke-width:1.5;"/>
   </g>
   <g id="LineCollection_4">
    <path clip-path="url(#p4db4c18534)" d="M 224.994165 307.584 
L 224.256 307.316161 
L 220.936632 305.80992 
L 217.691201 304.03584 
L 217.1136 303.698573 
L 214.7328 302.155525 
L 212.352 300.448711 
L 208.030046 296.93952 
L 205.2096 294.394475 
L 202.36386 291.61728 
L 198.0672 287.078441 
L 194.26959 282.74688 
L 189.87378 277.42464 
L 183.7824 269.630082 
L 169.195819 250.81344 
L 164.736 245.684229 
L 159.9744 241.0152 
L 156.531589 238.39488 
L 155.2128 237.502215 
L 152.832 236.283087 
L 150.4512 235.461963 
L 148.0704 235.071651 
L 145.6896 235.116166 
L 143.3088 235.596155 
L 140.728869 236.6208 
L 138.5472 237.813454 
L 135.373305 240.16896 
L 133.329531 241.94304 
L 131.4048 243.786779 
L 128.207138 247.26528 
L 125.196143 250.81344 
L 121.8816 254.934476 
L 104.741485 277.42464 
L 100.398581 282.74688 
L 95.6928 288.127323 
L 90.9312 293.078506 
L 88.5504 295.348505 
L 84.67099 298.7136 
L 81.408 301.244274 
L 79.0272 302.8888 
L 76.6464 304.365888 
L 73.976472 305.80992 
L 71.8848 306.799005 
L 69.931766 307.584 
L 69.931766 307.584 
" style="fill:none;stroke:#21918c;stroke-width:1.5;"/>
    <path clip-path="url(#p4db4c18534)" d="M 403.554165 307.584 
L 402.816 307.316161 
L 399.496632 305.80992 
L 396.251201 304.03584 
L 395.6736 303.698573 
L 393.2928 302.155525 
L 390.912 300.448711 
L 386.590046 296.93952 
L 383.7696 294.394475 
L 380.92386 291.61728 
L 376.6272 287.078441 
L 372.82959 282.74688 
L 368.43378 277.42464 
L 362.3424 269.630082 
L 347.755819 250.81344 
L 343.296 245.684229 
L 338.5344 241.0152 
L 335.091589 238.39488 
L 333.7728 237.502215 
L 331.392 236.283087 
L 329.0112 235.461963 
L 326.6304 235.071651 
L 324.2496 235.116166 
L 321.8688 235.596155 
L 319.288869 236.6208 
L 317.1072 237.813454 
L 313.933305 240.16896 
L 311.889531 241.94304 
L 309.9648 243.786779 
L 306.767138 247.26528 
L 303.756143 250.81344 
L 300.4416 254.934476 
L 283.301485 277.42464 
L 278.958581 282.74688 
L 274.2528 288.127323 
L 269.4912 293.078506 
L 267.1104 295.348505 
L 263.23099 298.7136 
L 259.968 301.244274 
L 257.5872 302.8888 
L 255.2064 304.365888 
L 252.536472 305.80992 
L 250.4448 306.799005 
L 248.491766 307.584 
L 248.491766 307.584 
" style="fill:none;stroke:#21918c;stroke-width:1.5;"/>
    <path clip-path="url(#p4db4c18534)" d="M 68.765835 41.472 
L 69.504 41.739839 
L 72.823368 43.24608 
L 76.068799 45.02016 
L 76.6464 45.357427 
L 79.0272 46.900475 
L 81.408 48.607289 
L 85.729954 52.11648 
L 88.5504 54.661525 
L 91.39614 57.43872 
L 95.6928 61.977559 
L 99.49041 66.30912 
L 103.88622 71.63136 
L 109.9776 79.425918 
L 124.564181 98.24256 
L 129.024 103.371771 
L 133.7856 108.0408 
L 137.228411 110.66112 
L 138.5472 111.553785 
L 140.928 112.772913 
L 143.3088 113.594037 
L 145.6896 113.984349 
L 148.0704 113.939834 
L 150.4512 113.459845 
L 153.031131 112.4352 
L 155.2128 111.242546 
L 158.386695 108.88704 
L 160.430469 107.11296 
L 162.3552 105.269221 
L 165.552862 101.79072 
L 168.563857 98.24256 
L 171.8784 94.121524 
L 189.018515 71.63136 
L 193.361419 66.30912 
L 198.0672 60.928677 
L 202.8288 55.977494 
L 205.2096 53.707495 
L 209.08901 50.3424 
L 212.352 47.811726 
L 214.7328 46.1672 
L 217.1136 44.690112 
L 219.783528 43.24608 
L 221.8752 42.256995 
L 223.828234 41.472 
L 223.828234 41.472 
" style="fill:none;stroke:#21918c;stroke-width:1.5;"/>
    <path clip-path="url(#p4db4c18534)" d="M 247.325835 41.472 
L 248.064 41.739839 
L 251.383368 43.24608 
L 254.628799 45.02016 
L 255.2064 45.357427 
L 257.5872 46.900475 
L 259.968 48.607289 
L 264.289954 52.11648 
L 267.1104 54.661525 
L 269.95614 57.43872 
L 274.2528 61.977559 
L 278.05041 66.30912 
L 282.44622 71.63136 
L 288.5376 79.425918 
L 303.124181 98.24256 
L 307.584 103.371771 
L 312.3456 108.0408 
L 315.788411 110.66112 
L 317.1072 111.553785 
L 319.488 112.772913 
L 321.8688 113.594037 
L 324.2496 113.984349 
L 326.6304 113.939834 
L 329.0112 113.459845 
L 331.591131 112.4352 
L 333.7728 111.242546 
L 336.946695 108.88704 
L 338.990469 107.11296 
L 340.9152 105.269221 
L 344.112862 101.79072 
L 347.123857 98.24256 
L 350.4384 94.121524 
L 367.578515 71.63136 
L 371.921419 66.30912 
L 376.6272 60.928677 
L 381.3888 55.977494 
L 383.7696 53.707495 
L 387.64901 50.3424 
L 390.912 47.811726 
L 393.2928 46.1672 
L 395.6736 44.690112 
L 398.343528 43.24608 
L 400.4352 42.256995 
L 402.388234 41.472 
L 402.388234 41.472 
" style="fill:none;stroke:#21918c;stroke-width:1.5;"/>
   </g>
   <g id="LineCollection_5">
    <path clip-path="url(#p4db4c18534)" d="M 200.019575 307.584 
L 198.111777 305.80992 
L 198.0672 305.767908 
L 196.267624 304.03584 
L 195.6864 303.468772 
L 194.466348 302.26176 
L 193.3056 301.097466 
L 192.701854 300.48768 
L 190.969797 298.7136 
L 190.9248 298.666851 
L 189.262109 296.93952 
L 188.544 296.182632 
L 187.572049 295.16544 
L 186.1632 293.669185 
L 185.897834 293.39136 
L 184.22842 291.61728 
L 183.7824 291.136055 
L 182.55774 289.8432 
L 181.4016 288.603694 
L 180.887961 288.06912 
L 179.209909 286.29504 
L 179.0208 286.0919 
L 177.501585 284.52096 
L 176.64 283.615447 
L 175.773567 282.74688 
L 174.2592 281.203455 
L 174.019512 280.9728 
L 172.206703 279.19872 
L 171.8784 278.871885 
L 170.321058 277.42464 
L 169.4976 276.645913 
L 168.35508 275.65056 
L 167.1168 274.552403 
L 166.276432 273.87648 
L 164.736 272.614789 
L 164.032934 272.1024 
L 162.3552 270.856835 
L 161.535538 270.32832 
L 159.9744 269.302518 
L 158.620226 268.55424 
L 157.5936 267.975923 
L 155.2128 266.89883 
L 154.861551 266.78016 
L 152.832 266.080851 
L 150.4512 265.545033 
L 148.0704 265.298287 
L 145.6896 265.342991 
L 143.3088 265.679262 
L 140.928 266.304938 
L 139.6853 266.78016 
L 138.5472 267.207282 
L 136.1664 268.373546 
L 135.865564 268.55424 
L 133.7856 269.780684 
L 132.996398 270.32832 
L 131.4048 271.412876 
L 130.51915 272.1024 
L 129.024 273.245854 
L 128.28582 273.87648 
L 126.6432 275.25534 
L 126.214062 275.65056 
L 124.2624 277.41717 
L 124.254766 277.42464 
L 122.41033 279.19872 
L 121.8816 279.698845 
L 120.619642 280.9728 
L 119.5008 282.083819 
L 118.868169 282.74688 
L 117.14779 284.52096 
L 117.12 284.549162 
L 115.473779 286.29504 
L 114.7392 287.061911 
L 113.807655 288.06912 
L 112.3584 289.611928 
L 112.146884 289.8432 
L 110.499242 291.61728 
L 109.9776 292.17053 
L 108.848047 293.39136 
L 107.5968 294.72371 
L 107.186662 295.16544 
L 105.515029 296.93952 
L 105.216 297.252303 
L 103.82472 298.7136 
L 102.8352 299.738136 
L 102.109105 300.48768 
L 100.4544 302.17182 
L 100.365136 302.26176 
L 98.579609 304.03584 
L 98.0736 304.531719 
L 96.746551 305.80992 
L 95.6928 306.811141 
L 94.859101 307.584 
" style="fill:none;stroke:#35b779;stroke-width:1.5;"/>
    <path clip-path="url(#p4db4c18534)" d="M 378.579575 307.584 
L 376.671777 305.80992 
L 376.6272 305.767908 
L 374.827624 304.03584 
L 374.2464 303.468772 
L 373.026348 302.26176 
L 371.8656 301.097466 
L 371.261854 300.48768 
L 369.529797 298.7136 
L 369.4848 298.666851 
L 367.822109 296.93952 
L 367.104 296.182632 
L 366.132049 295.16544 
L 364.7232 293.669185 
L 364.457834 293.39136 
L 362.78842 291.61728 
L 362.3424 291.136055 
L 361.11774 289.8432 
L 359.9616 288.603694 
L 359.447961 288.06912 
L 357.769909 286.29504 
L 357.5808 286.0919 
L 356.061585 284.52096 
L 355.2 283.615447 
L 354.333567 282.74688 
L 352.8192 281.203455 
L 352.579512 280.9728 
L 350.766703 279.19872 
L 350.4384 278.871885 
L 348.881058 277.42464 
L 348.0576 276.645913 
L 346.91508 275.65056 
L 345.6768 274.552403 
L 344.836432 273.87648 
L 343.296 272.614789 
L 342.592934 272.1024 
L 340.9152 270.856835 
L 340.095538 270.32832 
L 338.5344 269.302518 
L 337.180226 268.55424 
L 336.1536 267.975923 
L 333.7728 266.89883 
L 333.421551 266.78016 
L 331.392 266.080851 
L 329.0112 265.545033 
L 326.6304 265.298287 
L 324.2496 265.342991 
L 321.8688 265.679262 
L 319.488 266.304938 
L 318.2453 266.78016 
L 317.1072 267.207282 
L 314.7264 268.373546 
L 314.425564 268.55424 
L 312.3456 269.780684 
L 311.556398 270.32832 
L 309.9648 271.412876 
L 309.07915 272.1024 
L 307.584 273.245854 
L 306.84582 273.87648 
L 305.2032 275.25534 
L 304.774062 275.65056 
L 302.8224 277.41717 
L 302.814766 277.42464 
L 300.97033 279.19872 
L 300.4416 279.698845 
L 299.179642 280.9728 
L 298.0608 282.083819 
L 297.428169 282.74688 
L 295.70779 284.52096 
L 295.68 284.549162 
L 294.033779 286.29504 
L 293.2992 287.061911 
L 292.367655 288.06912 
L 290.9184 289.611928 
L 290.706884 289.8432 
L 289.059242 291.61728 
L 288.5376 292.17053 
L 287.408047 293.39136 
L 286.1568 294.72371 
L 285.746662 295.16544 
L 284.075029 296.93952 
L 283.776 297.252303 
L 282.38472 298.7136 
L 281.3952 299.738136 
L 280.669105 300.48768 
L 279.0144 302.17182 
L 278.925136 302.26176 
L 277.139609 304.03584 
L 276.6336 304.531719 
L 275.306551 305.80992 
L 274.2528 306.811141 
L 273.419101 307.584 
" style="fill:none;stroke:#35b779;stroke-width:1.5;"/>
    <path clip-path="url(#p4db4c18534)" d="M 93.740425 41.472 
L 95.648223 43.24608 
L 95.6928 43.288092 
L 97.492376 45.02016 
L 98.0736 45.587228 
L 99.293652 46.79424 
L 100.4544 47.958534 
L 101.058146 48.56832 
L 102.790203 50.3424 
L 102.8352 50.389149 
L 104.497891 52.11648 
L 105.216 52.873368 
L 106.187951 53.89056 
L 107.5968 55.386815 
L 107.862166 55.66464 
L 109.53158 57.43872 
L 109.9776 57.919945 
L 111.20226 59.2128 
L 112.3584 60.452306 
L 112.872039 60.98688 
L 114.550091 62.76096 
L 114.7392 62.9641 
L 116.258415 64.53504 
L 117.12 65.440553 
L 117.986433 66.30912 
L 119.5008 67.852545 
L 119.740488 68.0832 
L 121.553297 69.85728 
L 121.8816 70.184115 
L 123.438942 71.63136 
L 124.2624 72.410087 
L 125.40492 73.40544 
L 126.6432 74.503597 
L 127.483568 75.17952 
L 129.024 76.441211 
L 129.727066 76.9536 
L 131.4048 78.199165 
L 132.224462 78.72768 
L 133.7856 79.753482 
L 135.139774 80.50176 
L 136.1664 81.080077 
L 138.5472 82.15717 
L 138.898449 82.27584 
L 140.928 82.975149 
L 143.3088 83.510967 
L 145.6896 83.757713 
L 148.0704 83.713009 
L 150.4512 83.376738 
L 152.832 82.751062 
L 154.0747 82.27584 
L 155.2128 81.848718 
L 157.5936 80.682454 
L 157.894436 80.50176 
L 159.9744 79.275316 
L 160.763602 78.72768 
L 162.3552 77.643124 
L 163.24085 76.9536 
L 164.736 75.810146 
L 165.47418 75.17952 
L 167.1168 73.80066 
L 167.545938 73.40544 
L 169.4976 71.63883 
L 169.505234 71.63136 
L 171.34967 69.85728 
L 171.8784 69.357155 
L 173.140358 68.0832 
L 174.2592 66.972181 
L 174.891831 66.30912 
L 176.61221 64.53504 
L 176.64 64.506838 
L 178.286221 62.76096 
L 179.0208 61.994089 
L 179.952345 60.98688 
L 181.4016 59.444072 
L 181.613116 59.2128 
L 183.260758 57.43872 
L 183.7824 56.88547 
L 184.911953 55.66464 
L 186.1632 54.33229 
L 186.573338 53.89056 
L 188.244971 52.11648 
L 188.544 51.803697 
L 189.93528 50.3424 
L 190.9248 49.317864 
L 191.650895 48.56832 
L 193.3056 46.88418 
L 193.394864 46.79424 
L 195.180391 45.02016 
L 195.6864 44.524281 
L 197.013449 43.24608 
L 198.0672 42.244859 
L 198.900899 41.472 
" style="fill:none;stroke:#35b779;stroke-width:1.5;"/>
    <path clip-path="url(#p4db4c18534)" d="M 272.300425 41.472 
L 274.208223 43.24608 
L 274.2528 43.288092 
L 276.052376 45.02016 
L 276.6336 45.587228 
L 277.853652 46.79424 
L 279.0144 47.958534 
L 279.618146 48.56832 
L 281.350203 50.3424 
L 281.3952 50.389149 
L 283.057891 52.11648 
L 283.776 52.873368 
L 284.747951 53.89056 
L 286.1568 55.386815 
L 286.422166 55.66464 
L 288.09158 57.43872 
L 288.5376 57.919945 
L 289.76226 59.2128 
L 290.9184 60.452306 
L 291.432039 60.98688 
L 293.110091 62.76096 
L 293.2992 62.9641 
L 294.818415 64.53504 
L 295.68 65.440553 
L 296.546433 66.30912 
L 298.0608 67.852545 
L 298.300488 68.0832 
L 300.113297 69.85728 
L 300.4416 70.184115 
L 301.998942 71.63136 
L 302.8224 72.410087 
L 303.96492 73.40544 
L 305.2032 74.503597 
L 306.043568 75.17952 
L 307.584 76.441211 
L 308.287066 76.9536 
L 309.9648 78.199165 
L 310.784462 78.72768 
L 312.3456 79.753482 
L 313.699774 80.50176 
L 314.7264 81.080077 
L 317.1072 82.15717 
L 317.458449 82.27584 
L 319.488 82.975149 
L 321.8688 83.510967 
L 324.2496 83.757713 
L 326.6304 83.713009 
L 329.0112 83.376738 
L 331.392 82.751062 
L 332.6347 82.27584 
L 333.7728 81.848718 
L 336.1536 80.682454 
L 336.454436 80.50176 
L 338.5344 79.275316 
L 339.323602 78.72768 
L 340.9152 77.643124 
L 341.80085 76.9536 
L 343.296 75.810146 
L 344.03418 75.17952 
L 345.6768 73.80066 
L 346.105938 73.40544 
L 348.0576 71.63883 
L 348.065234 71.63136 
L 349.90967 69.85728 
L 350.4384 69.357155 
L 351.700358 68.0832 
L 352.8192 66.972181 
L 353.451831 66.30912 
L 355.17221 64.53504 
L 355.2 64.506838 
L 356.846221 62.76096 
L 357.5808 61.994089 
L 358.512345 60.98688 
L 359.9616 59.444072 
L 360.173116 59.2128 
L 361.820758 57.43872 
L 362.3424 56.88547 
L 363.471953 55.66464 
L 364.7232 54.33229 
L 365.133338 53.89056 
L 366.804971 52.11648 
L 367.104 51.803697 
L 368.49528 50.3424 
L 369.4848 49.317864 
L 370.210895 48.56832 
L 371.8656 46.88418 
L 371.954864 46.79424 
L 373.740391 45.02016 
L 374.2464 44.524281 
L 375.573449 43.24608 
L 376.6272 42.244859 
L 377.460899 41.472 
" style="fill:none;stroke:#35b779;stroke-width:1.5;"/>
   </g>
   <g id="LineCollection_6">
    <path clip-path="url(#p4db4c18534)" d="M 181.945513 307.584 
L 181.4016 307.079268 
L 179.99217 305.80992 
L 179.0208 304.923119 
L 178.010877 304.03584 
L 176.64 302.814694 
L 175.989016 302.26176 
L 174.2592 300.77173 
L 173.909827 300.48768 
L 171.8784 298.812367 
L 171.750048 298.7136 
L 169.4976 296.955054 
L 169.475991 296.93952 
L 167.1168 295.218436 
L 167.036653 295.16544 
L 164.736 293.621245 
L 164.350791 293.39136 
L 162.3552 292.182187 
L 161.280691 291.61728 
L 159.9744 290.919821 
L 157.5936 289.8523 
L 157.56827 289.8432 
L 155.2128 288.983576 
L 152.832 288.336864 
L 151.3114 288.06912 
L 150.4512 287.915215 
L 148.0704 287.723988 
L 145.6896 287.769199 
L 143.3088 288.050814 
L 143.224329 288.06912 
L 140.928 288.559226 
L 138.5472 289.294573 
L 137.182298 289.8432 
L 136.1664 290.245448 
L 133.7856 291.399246 
L 133.40279 291.61728 
L 131.4048 292.738484 
L 130.385597 293.39136 
L 129.024 294.250884 
L 127.726134 295.16544 
L 126.6432 295.917592 
L 125.301345 296.93952 
L 124.2624 297.719549 
L 123.036917 298.7136 
L 121.8816 299.637625 
L 120.885356 300.48768 
L 119.5008 301.652741 
L 118.814855 302.26176 
L 117.12 303.745996 
L 116.803209 304.03584 
L 114.83765 305.80992 
L 114.7392 305.897594 
L 112.910278 307.584 
" style="fill:none;stroke:#90d743;stroke-width:1.5;"/>
    <path clip-path="url(#p4db4c18534)" d="M 360.505513 307.584 
L 359.9616 307.079268 
L 358.55217 305.80992 
L 357.5808 304.923119 
L 356.570877 304.03584 
L 355.2 302.814694 
L 354.549016 302.26176 
L 352.8192 300.77173 
L 352.469827 300.48768 
L 350.4384 298.812367 
L 350.310048 298.7136 
L 348.0576 296.955054 
L 348.035991 296.93952 
L 345.6768 295.218436 
L 345.596653 295.16544 
L 343.296 293.621245 
L 342.910791 293.39136 
L 340.9152 292.182187 
L 339.840691 291.61728 
L 338.5344 290.919821 
L 336.1536 289.8523 
L 336.12827 289.8432 
L 333.7728 288.983576 
L 331.392 288.336864 
L 329.8714 288.06912 
L 329.0112 287.915215 
L 326.6304 287.723988 
L 324.2496 287.769199 
L 321.8688 288.050814 
L 321.784329 288.06912 
L 319.488 288.559226 
L 317.1072 289.294573 
L 315.742298 289.8432 
L 314.7264 290.245448 
L 312.3456 291.399246 
L 311.96279 291.61728 
L 309.9648 292.738484 
L 308.945597 293.39136 
L 307.584 294.250884 
L 306.286134 295.16544 
L 305.2032 295.917592 
L 303.861345 296.93952 
L 302.8224 297.719549 
L 301.596917 298.7136 
L 300.4416 299.637625 
L 299.445356 300.48768 
L 298.0608 301.652741 
L 297.374855 302.26176 
L 295.68 303.745996 
L 295.363209 304.03584 
L 293.39765 305.80992 
L 293.2992 305.897594 
L 291.470278 307.584 
" style="fill:none;stroke:#90d743;stroke-width:1.5;"/>
    <path clip-path="url(#p4db4c18534)" d="M 111.814487 41.472 
L 112.3584 41.976732 
L 113.76783 43.24608 
L 114.7392 44.132881 
L 115.749123 45.02016 
L 117.12 46.241306 
L 117.770984 46.79424 
L 119.5008 48.28427 
L 119.850173 48.56832 
L 121.8816 50.243633 
L 122.009952 50.3424 
L 124.2624 52.100946 
L 124.284009 52.11648 
L 126.6432 53.837564 
L 126.723347 53.89056 
L 129.024 55.434755 
L 129.409209 55.66464 
L 131.4048 56.873813 
L 132.479309 57.43872 
L 133.7856 58.136179 
L 136.1664 59.2037 
L 136.19173 59.2128 
L 138.5472 60.072424 
L 140.928 60.719136 
L 142.4486 60.98688 
L 143.3088 61.140785 
L 145.6896 61.332012 
L 148.0704 61.286801 
L 150.4512 61.005186 
L 150.535671 60.98688 
L 152.832 60.496774 
L 155.2128 59.761427 
L 156.577702 59.2128 
L 157.5936 58.810552 
L 159.9744 57.656754 
L 160.35721 57.43872 
L 162.3552 56.317516 
L 163.374403 55.66464 
L 164.736 54.805116 
L 166.033866 53.89056 
L 167.1168 53.138408 
L 168.458655 52.11648 
L 169.4976 51.336451 
L 170.723083 50.3424 
L 171.8784 49.418375 
L 172.874644 48.56832 
L 174.2592 47.403259 
L 174.945145 46.79424 
L 176.64 45.310004 
L 176.956791 45.02016 
L 178.92235 43.24608 
L 179.0208 43.158406 
L 180.849722 41.472 
" style="fill:none;stroke:#90d743;stroke-width:1.5;"/>
    <path clip-path="url(#p4db4c18534)" d="M 290.374487 41.472 
L 290.9184 41.976732 
L 292.32783 43.24608 
L 293.2992 44.132881 
L 294.309123 45.02016 
L 295.68 46.241306 
L 296.330984 46.79424 
L 298.0608 48.28427 
L 298.410173 48.56832 
L 300.4416 50.243633 
L 300.569952 50.3424 
L 302.8224 52.100946 
L 302.844009 52.11648 
L 305.2032 53.837564 
L 305.283347 53.89056 
L 307.584 55.434755 
L 307.969209 55.66464 
L 309.9648 56.873813 
L 311.039309 57.43872 
L 312.3456 58.136179 
L 314.7264 59.2037 
L 314.75173 59.2128 
L 317.1072 60.072424 
L 319.488 60.719136 
L 321.0086 60.98688 
L 321.8688 61.140785 
L 324.2496 61.332012 
L 326.6304 61.286801 
L 329.0112 61.005186 
L 329.095671 60.98688 
L 331.392 60.496774 
L 333.7728 59.761427 
L 335.137702 59.2128 
L 336.1536 58.810552 
L 338.5344 57.656754 
L 338.91721 57.43872 
L 340.9152 56.317516 
L 341.934403 55.66464 
L 343.296 54.805116 
L 344.593866 53.89056 
L 345.6768 53.138408 
L 347.018655 52.11648 
L 348.0576 51.336451 
L 349.283083 50.3424 
L 350.4384 49.418375 
L 351.434644 48.56832 
L 352.8192 47.403259 
L 353.505145 46.79424 
L 355.2 45.310004 
L 355.516791 45.02016 
L 357.48235 43.24608 
L 357.5808 43.158406 
L 359.409722 41.472 
" style="fill:none;stroke:#90d743;stroke-width:1.5;"/>
   </g>
   <g id="LineCollection_7">
    <path clip-path="url(#p4db4c18534)" d="M 155.618264 307.584 
L 155.2128 307.456836 
L 152.832 306.902942 
L 150.4512 306.546154 
L 148.0704 306.389475 
L 145.6896 306.434364 
L 143.3088 306.680711 
L 140.928 307.126834 
L 139.234204 307.584 
" style="fill:none;stroke:#fde725;stroke-width:1.5;"/>
    <path clip-path="url(#p4db4c18534)" d="M 334.178264 307.584 
L 333.7728 307.456836 
L 331.392 306.902942 
L 329.0112 306.546154 
L 326.6304 306.389475 
L 324.2496 306.434364 
L 321.8688 306.680711 
L 319.488 307.126834 
L 317.794204 307.584 
" style="fill:none;stroke:#fde725;stroke-width:1.5;"/>
    <path clip-path="url(#p4db4c18534)" d="M 138.141736 41.472 
L 138.5472 41.599164 
L 140.928 42.153058 
L 143.3088 42.509846 
L 145.6896 42.666525 
L 148.0704 42.621636 
L 150.4512 42.375289 
L 152.832 41.929166 
L 154.525796 41.472 
" style="fill:none;stroke:#fde725;stroke-width:1.5;"/>
    <path clip-path="url(#p4db4c18534)" d="M 316.701736 41.472 
L 317.1072 41.599164 
L 319.488 42.153058 
L 321.8688 42.509846 
L 324.2496 42.666525 
L 326.6304 42.621636 
L 329.0112 42.375289 
L 331.392 41.929166 
L 333.085796 41.472 
" style="fill:none;stroke:#fde725;stroke-width:1.5;"/>
   </g>
   <g id="patch_3">
    <path d="M 57.6 307.584 
L 57.6 41.472 
" style="fill:none;stroke:#000000;stroke-linecap:square;stroke-linejoin:miter;stroke-width:0.8;"/>
   </g>
   <g id="patch_4">
    <path d="M 414.72 307.584 
L 414.72 41.472 
" style="fill:none;stroke:#000000;stroke-linecap:square;stroke-linejoin:miter;stroke-width:0.8;"/>
   </g>
   <g id="patch_5">
    <path d="M 57.6 307.584 
L 414.72 307.584 
" style="fill:none;stroke:#000000;stroke-linecap:square;stroke-linejoin:miter;stroke-width:0.8;"/>
   </g>
   <g id="patch_6">
    <path d="M 57.6 41.472 
L 414.72 41.472 
" style="fill:none;stroke:#000000;stroke-linecap:square;stroke-linejoin:miter;stroke-width:0.8;"/>
   </g>
   <g id="text_17">
    <!-- V -->
    <defs>
     <path d="M 28.609375 0 
L 0.78125 72.90625 
L 11.078125 72.90625 
L 34.1875 11.53125 
L 57.328125 72.90625 
L 67.578125 72.90625 
L 39.796875 0 
z
" id="DejaVuSans-56"/>
    </defs>
    <g transform="translate(232.055625 35.472)scale(0.12 -0.12)">
     <use xlink:href="#DejaVuSans-56"/>
    </g>
   </g>
  </g>
 </g>
 <defs>
  <clipPath id="p4db4c18534">
   <rect height="266.112" width="357.12" x="57.6" y="41.472"/>
  </clipPath>
 </defs>
</svg>
